<svg width="24" height="24" viewBox="0 0 24 24" fill="none" xmlns="http://www.w3.org/2000/svg">
<g clip-path="url(#clip0_4432_6296)">
<path d="M23.431 2.36739C23.431 2.02314 23.2968 1.69903 23.0529 1.45455C22.4446 0.950615 21.8364 0.950615 21.2281 1.45455L17.6108 5.07189V3.3256C17.6108 2.87057 16.9069 2.87057 16.9069 3.3256V5.2541C16.5332 5.01417 16.1421 4.91652 15.7337 4.9611V1.29045C15.7337 0.966992 15.9969 0.703881 16.3203 0.703881C16.6777 0.737574 16.8732 0.933065 16.9069 1.29045V1.79161C16.9069 2.24665 17.6108 2.24665 17.6108 1.79161V1.29045C17.5369 0.50412 17.1068 0.0740014 16.3203 0C15.6088 0 15.0299 0.578872 15.0299 1.29045V4.07561C14.71 3.74723 14.2635 3.54287 13.7699 3.54287C13.4954 3.54287 13.2291 3.60617 12.9887 3.7256C12.6964 3.14588 12.0976 2.76109 11.418 2.76109C10.7384 2.76109 10.1397 3.14583 9.84733 3.72555C9.60693 3.60612 9.34059 3.54282 9.06612 3.54282C8.1987 3.54282 7.47582 4.17364 7.33232 5.0007C7.19666 4.96752 7.05687 4.95058 6.91553 4.95058C6.06242 4.95058 5.34916 5.56076 5.18933 6.36764C4.34585 6.4544 3.67711 7.13937 3.61564 7.98999C3.20054 8.28731 2.93391 8.75103 2.88726 9.2605C2.46897 9.58193 2.21975 10.0688 2.20473 10.6025C1.29227 10.6665 0.569336 11.4288 0.569336 12.3573V14.9344C0.569336 18.3328 3.07252 21.3643 6.41882 21.9974C6.28424 22.2251 6.24055 22.5525 6.25623 22.8268C6.25623 23.4737 6.78249 24 7.42936 24H15.4067C16.0535 24 16.5798 23.4737 16.5798 22.8268C16.5955 22.5525 16.5518 22.2251 16.4172 21.9974C19.7605 21.365 22.2668 18.3309 22.2668 14.9345V12.3573C22.2668 11.4289 21.5438 10.6666 20.6314 10.6025C20.6163 10.0689 20.3671 9.58198 19.9488 9.26054C19.9022 8.75107 19.6355 8.28736 19.2204 7.99004C19.2028 7.74495 19.1344 7.51374 19.0262 7.30652L23.0529 3.2798C23.2967 3.03603 23.431 2.71196 23.431 2.36739ZM21.0429 17.478H1.79324C1.45876 16.6966 1.27326 15.8369 1.27326 14.9345V13.6064H21.5629V14.9345C21.5629 15.8369 21.3774 16.6966 21.0429 17.478ZM15.0782 21.4191H14.3406C14.1462 21.4191 13.9886 21.5767 13.9886 21.771C13.9886 21.9654 14.1462 22.123 14.3406 22.123H15.4067C15.6655 22.123 15.876 22.3335 15.876 22.5922V22.8269C15.876 23.0856 15.6655 23.2961 15.4067 23.2961H7.42941C7.17066 23.2961 6.96015 23.0856 6.96015 22.8269V22.5922C6.96015 22.3335 7.17066 22.123 7.42941 22.123H12.8066C13.001 22.123 13.1585 21.9654 13.1585 21.771C13.1585 21.5767 13.001 21.4191 12.8066 21.4191H7.75789C5.36474 21.4191 3.27041 20.1158 2.14678 18.1819H20.6894C19.5658 20.1158 17.4714 21.4191 15.0782 21.4191ZM19.2522 9.41943C19.2432 9.54585 19.2993 9.65626 19.4205 9.75063C19.7229 9.93425 19.9091 10.2479 19.9271 10.5976H7.56174C7.36737 10.5976 7.2098 10.7552 7.2098 10.9496C7.2098 11.1439 7.36737 11.3015 7.56174 11.3015H20.507C21.0892 11.3015 21.5629 11.7751 21.5629 12.3573V12.9026H1.27326V12.3573C1.27326 11.7751 1.74688 11.3015 2.32909 11.3015H6.02775C6.22211 11.3015 6.37969 11.1439 6.37969 10.9496C6.37969 10.7552 6.22211 10.5976 6.02775 10.5976H2.90899C2.92701 10.2479 3.11326 9.93425 3.4156 9.75063C3.53704 9.65561 3.59316 9.54449 3.58387 9.41727C3.58533 9.033 3.79569 8.67961 4.13365 8.4943C4.26659 8.38712 4.32703 8.26173 4.31497 8.1181C4.31497 7.53589 4.78859 7.06227 5.37079 7.06227C5.64207 7.06227 5.80884 7.01549 5.85975 6.71033C5.85975 6.12813 6.33337 5.65451 6.91557 5.65451C7.11787 5.65451 7.3151 5.71256 7.48586 5.82241C7.8867 5.94395 8.06154 5.77065 8.01034 5.30257C8.01034 4.72037 8.48396 4.24675 9.06617 4.24675C9.33622 4.24675 9.59323 4.34895 9.78985 4.53459C10.064 4.7039 10.2601 4.63862 10.3782 4.33886C10.4661 3.83249 10.9034 3.46497 11.4181 3.46497C11.9327 3.46497 12.37 3.83249 12.4579 4.33886C12.576 4.63862 12.7721 4.70385 13.0463 4.53454C13.2429 4.34891 13.4999 4.2467 13.77 4.2467C14.3521 4.2467 14.8258 4.72032 14.8258 5.30253C14.7746 5.77061 14.9494 5.9439 15.3503 5.82236C15.5211 5.71251 15.7183 5.65447 15.9206 5.65447C16.5027 5.65447 16.9764 6.12808 16.9764 6.71029C17.0094 6.98475 17.1723 7.10207 17.4653 7.06223C18.0475 7.06223 18.5212 7.53585 18.5212 8.11805C18.5092 8.26164 18.5697 8.38703 18.7024 8.49425C19.0411 8.67993 19.2516 9.03436 19.2522 9.41943ZM22.5552 2.78207L18.5796 6.75759C18.32 6.5445 17.9987 6.40391 17.6468 6.36768C17.6107 6.27046 17.5987 6.17036 17.6108 6.06736L21.7258 1.95228C22.0021 1.72334 22.2784 1.72324 22.5548 1.952C22.7844 2.22868 22.7845 2.50539 22.5552 2.78207Z" fill="white"/>
<path d="M8.74527 7.75781C8.16307 7.75781 7.68945 8.23143 7.68945 8.81363C7.68945 9.008 7.84703 9.16558 8.04139 9.16558C8.23576 9.16558 8.39333 9.008 8.39333 8.81363C8.39333 8.61955 8.55119 8.46169 8.74527 8.46169C8.93936 8.46169 9.09721 8.61955 9.09721 8.81363C9.09721 9.008 9.25479 9.16558 9.44915 9.16558C9.64352 9.16558 9.8011 9.008 9.8011 8.81363C9.8011 8.23148 9.32748 7.75781 8.74527 7.75781Z" fill="white"/>
<path d="M11.4377 6.13672C10.8555 6.13672 10.3818 6.61034 10.3818 7.19254C10.3818 7.3869 10.5394 7.54448 10.7338 7.54448C10.9281 7.54448 11.0857 7.3869 11.0857 7.19254C11.0857 6.99846 11.2436 6.8406 11.4377 6.8406C11.6317 6.8406 11.7896 6.99846 11.7896 7.19254C11.7896 7.3869 11.9471 7.54448 12.1415 7.54448C12.336 7.54448 12.4935 7.3869 12.4935 7.19254C12.4935 6.61034 12.0198 6.13672 11.4377 6.13672Z" fill="white"/>
<path d="M14.091 7.75781C13.5088 7.75781 13.0352 8.23143 13.0352 8.81363C13.0352 9.008 13.1927 9.16558 13.3871 9.16558C13.5815 9.16558 13.739 9.008 13.739 8.81363C13.739 8.61955 13.8969 8.46169 14.091 8.46169C14.2851 8.46169 14.4429 8.61955 14.4429 8.81363C14.4429 9.008 14.6004 9.16558 14.7949 9.16558C14.9893 9.16558 15.1468 9.008 15.1468 8.81363C15.1468 8.23148 14.6731 7.75781 14.091 7.75781Z" fill="white"/>
</g>
<defs>
<clipPath id="clip0_4432_6296">
<rect width="24" height="24" fill="white"/>
</clipPath>
</defs>
</svg>
