<svg width="80" height="80" viewBox="0 0 80 80" fill="none" xmlns="http://www.w3.org/2000/svg">
<circle opacity="0.04" cx="40" cy="40" r="40" fill="black"/>
<circle opacity="0.07" cx="40" cy="40" r="30" fill="black"/>
<path opacity="0.4" d="M39.9927 60C34.6888 60.0048 29.6008 57.8993 25.8505 54.1477C22.1001 50.3962 19.9952 45.3066 20 40.0012V39.6012C20.1635 31.5861 25.0937 24.4424 32.5281 21.4484C39.9625 18.4544 48.4657 20.1881 54.1355 25.854C59.8583 31.5738 61.5711 40.1798 58.4745 47.656C55.378 55.1321 48.0826 60.0047 39.9927 60ZM39.9927 42.821L45.1708 48.0007L47.9897 45.1809L42.8116 40.0012L47.9897 34.8215L45.1708 32.0016L39.9927 37.1813L34.8146 32.0016L31.9956 34.8215L37.1737 40.0012L31.9956 45.1809L34.8146 48.0007L39.9927 42.823V42.821Z" fill="black"/>
</svg>
