<svg width="16" height="16" viewBox="0 0 16 16" fill="none" xmlns="http://www.w3.org/2000/svg">
<path d="M7.99967 14.0005C7.15763 13.2823 6.37713 12.4949 5.66634 11.6465C4.59968 10.3725 3.33301 8.47519 3.33301 6.66719C3.33206 4.77889 4.46917 3.07612 6.21372 2.35345C7.95827 1.63079 9.96638 2.03068 11.301 3.36652C12.1786 4.24026 12.6703 5.42878 12.6664 6.66719C12.6664 8.47519 11.3997 10.3725 10.333 11.6465C9.62222 12.4949 8.84172 13.2823 7.99967 14.0005ZM7.99968 4.66719C7.28514 4.66719 6.62489 5.04839 6.26762 5.66719C5.91036 6.28599 5.91036 7.04839 6.26762 7.66719C6.62489 8.28599 7.28514 8.66719 7.99968 8.66719C9.10424 8.66719 9.99968 7.77176 9.99968 6.66719C9.99968 5.56262 9.10424 4.66719 7.99968 4.66719Z" fill="#222B4A"/>
</svg>
