<svg width="50" height="30" viewBox="0 0 50 30" fill="none" xmlns="http://www.w3.org/2000/svg">
<path d="M50 15C50 23.2308 43.3077 30 35 30C26.7692 30 20 23.2308 20 15C20 6.76923 26.6923 0 34.9231 0C43.3077 0 50 6.76923 50 15Z" fill="#F9B50B"/>
<path d="M29.9231 15.0769C29.9231 14 29.7692 12.9231 29.6154 11.9231H20.3846C20.4615 11.3846 20.6154 10.9231 20.7692 10.3077H29C28.8462 9.76923 28.6154 9.23077 28.3846 8.69231H21.3846C21.6154 8.15385 21.9231 7.69231 22.2308 7.07692H27.5385C27.2308 6.53846 26.8462 6 26.3846 5.46154H23.4615C23.9231 4.92308 24.3846 4.46154 25 3.92308C22.3846 1.46154 18.8462 0 14.9231 0C6.76923 0.230769 0 6.76923 0 15C0 23.2308 6.69231 30 15 30C18.9231 30 22.3846 28.4615 25.0769 26.0769C25.6154 25.6154 26.0769 25.0769 26.6154 24.4615H23.5385C23.1538 24 22.7692 23.4615 22.4615 22.9231H27.6923C28 22.4615 28.3077 21.9231 28.5385 21.3077H21.5385C21.3077 20.8462 21.0769 20.3077 20.9231 19.6923H29.1538C29.6154 18.3077 29.9231 16.7692 29.9231 15.0769Z" fill="#C8191C"/>
<path d="M20.3077 18.8457L20.5385 17.4611C20.4615 17.4611 20.3077 17.538 20.1538 17.538C19.6154 17.538 19.5385 17.2303 19.6154 17.0765L20.0769 14.3072H20.9231L21.1538 12.7688H20.3846L20.5385 11.8457H18.9231C18.9231 11.8457 18 17.0765 18 17.6919C18 18.6149 18.5385 19.0765 19.3077 19.0765C19.7692 19.0765 20.1538 18.9226 20.3077 18.8457Z" fill="white"/>
<path d="M20.8457 16.308C20.8457 18.5388 22.3842 19.0772 23.6149 19.0772C24.7688 19.0772 25.3072 18.8465 25.3072 18.8465L25.6149 17.308C25.6149 17.308 24.7688 17.6926 23.9226 17.6926C22.1534 17.6926 22.4611 16.3849 22.4611 16.3849H25.6919C25.6919 16.3849 25.9226 15.3849 25.9226 14.9234C25.9226 13.9234 25.3842 12.6157 23.6149 12.6157C22.0765 12.5388 20.8457 14.308 20.8457 16.308ZM23.6149 14.0003C24.4611 14.0003 24.3072 15.0003 24.3072 15.0772H22.538C22.6149 15.0003 22.7688 14.0003 23.6149 14.0003Z" fill="white"/>
<path d="M33.6913 18.8454L33.999 17.0762C33.999 17.0762 33.2297 17.4608 32.6143 17.4608C31.5374 17.4608 30.9989 16.6146 30.9989 15.6146C30.9989 13.6916 31.922 12.6916 33.0759 12.6916C33.8451 12.6916 34.5374 13.1531 34.5374 13.1531L34.7682 11.4608C34.7682 11.4608 33.8451 11.0762 32.922 11.0762C31.0759 11.0762 29.3066 12.6916 29.3066 15.6916C29.3066 17.6916 30.2297 18.9992 32.1528 18.9992C32.8451 19.0762 33.6913 18.8454 33.6913 18.8454Z" fill="white"/>
<path d="M11.6152 12.5391C10.5383 12.5391 9.69216 12.8468 9.69216 12.8468L9.46139 14.2314C9.46139 14.2314 10.1537 13.9237 11.2306 13.9237C11.7691 13.9237 12.2306 14.0006 12.2306 14.4621C12.2306 14.7698 12.1537 14.8468 12.1537 14.8468H11.4614C10.0768 14.8468 8.61523 15.3852 8.61523 17.2314C8.61523 18.6929 9.53831 19.0006 10.1537 19.0006C11.2306 19.0006 11.7691 18.3083 11.846 18.3083L11.7691 18.9237H13.0768L13.6922 14.5391C13.6922 12.616 12.1537 12.5391 11.6152 12.5391ZM11.9229 16.0775C11.9229 16.3083 11.7691 17.616 10.846 17.616C10.3845 17.616 10.2306 17.2314 10.2306 17.0006C10.2306 16.616 10.4614 16.0775 11.6922 16.0775C11.846 16.0775 11.9229 16.0775 11.9229 16.0775Z" fill="white"/>
<path d="M15.2317 18.9994C15.6163 18.9994 17.6163 19.0763 17.6163 16.9225C17.6163 14.9225 15.6932 15.3071 15.6932 14.5379C15.6932 14.1532 16.0009 13.9994 16.5394 13.9994C16.7701 13.9994 17.6163 14.0763 17.6163 14.0763L17.8471 12.6148C17.8471 12.6148 17.3086 12.4609 16.3086 12.4609C15.1547 12.4609 13.924 12.9225 13.924 14.5379C13.924 16.384 15.924 16.2302 15.924 16.9225C15.924 17.384 15.3855 17.4609 15.0009 17.4609C14.3086 17.4609 13.5394 17.2302 13.5394 17.2302L13.3086 18.6917C13.4624 18.8456 13.924 18.9994 15.2317 18.9994Z" fill="white"/>
<path d="M46.9232 11.3086L46.6155 13.4624C46.6155 13.4624 46.0002 12.6932 45.0771 12.6932C43.6155 12.6932 42.3848 14.4624 42.3848 16.5394C42.3848 17.8471 43.0002 19.1547 44.3848 19.1547C45.3078 19.1547 45.9232 18.5394 45.9232 18.5394L45.8463 19.0778H47.4617L48.6155 11.4624L46.9232 11.3086ZM46.154 15.4624C46.154 16.3086 45.7694 17.4624 44.8463 17.4624C44.3078 17.4624 44.0002 17.0009 44.0002 16.1547C44.0002 14.8471 44.5386 14.0778 45.3078 14.0778C45.8463 14.1547 46.154 14.5394 46.154 15.4624Z" fill="white"/>
<path d="M2.92323 18.924L3.8463 13.2317L4.00015 18.924H5.07707L7.154 13.2317L6.30784 18.924H8.00015L9.30784 11.3086H6.69246L5.07707 16.0009L5.00015 11.3086H2.69246L1.38477 18.924H2.92323Z" fill="white"/>
<path d="M27.5388 18.9222C28.0003 16.3068 28.0772 14.1529 29.2311 14.5376C29.3849 13.5376 29.6157 13.076 29.7695 12.6914H29.4618C28.7695 12.6914 28.1541 13.6145 28.1541 13.6145L28.308 12.7683H26.7695L25.7695 18.9222H27.5388Z" fill="white"/>
<path d="M37.3848 12.5391C36.3078 12.5391 35.4617 12.8468 35.4617 12.8468L35.2309 14.2314C35.2309 14.2314 35.9232 13.9237 37.0001 13.9237C37.5386 13.9237 38.0002 14.0006 38.0002 14.4621C38.0002 14.7698 37.9232 14.8468 37.9232 14.8468H37.2309C35.8463 14.8468 34.3848 15.3852 34.3848 17.2314C34.3848 18.6929 35.3078 19.0006 35.9232 19.0006C37.0002 19.0006 37.5386 18.3083 37.6155 18.3083L37.5386 18.9237H39.0002L39.6155 14.5391C39.6155 12.616 37.9232 12.5391 37.3848 12.5391ZM37.7694 16.0775C37.7694 16.3083 37.6155 17.616 36.6925 17.616C36.2309 17.616 36.0771 17.2314 36.0771 17.0006C36.0771 16.616 36.3078 16.0775 37.5386 16.0775C37.6925 16.0775 37.6925 16.0775 37.7694 16.0775Z" fill="white"/>
<path d="M40.8474 18.9222C41.3089 16.3068 41.3858 14.1529 42.5397 14.5376C42.6935 13.5376 42.9243 13.076 43.0781 12.6914H42.7704C42.0781 12.6914 41.4627 13.6145 41.4627 13.6145L41.6166 12.7683H40.0781L39.0781 18.9222H40.8474Z" fill="white"/>
</svg>
