<svg width="124" height="30" viewBox="0 0 124 30" fill="none" xmlns="http://www.w3.org/2000/svg">
<path d="M47.3831 12.857C47.0657 15.238 45.1609 15.238 43.4149 15.238H42.4625L43.2561 10.6348C43.2561 10.3173 43.5736 10.1586 43.891 10.1586H44.3673C45.6371 10.1586 46.7482 10.1586 47.3831 10.7935C47.3831 11.4284 47.3831 12.0634 47.3831 12.857ZM46.5895 6.50781H39.7641C39.2879 6.50781 38.9704 6.82527 38.8117 7.30146L36.1133 24.7618C36.1133 25.0792 36.272 25.3967 36.7482 25.3967H39.9228C40.399 25.3967 40.7165 25.0792 40.8752 24.6031L41.6688 19.8411C41.6688 19.365 42.145 19.0475 42.6212 19.0475H44.8434C49.2879 19.0475 51.8276 16.8253 52.6212 12.5396C52.9387 10.6348 52.6212 9.20622 51.8276 8.09511C50.5577 7.14273 48.8117 6.50781 46.5895 6.50781Z" fill="#263577"/>
<path d="M62.3023 19.2057C61.9848 21.1105 60.5563 22.3803 58.6515 22.3803C57.6991 22.3803 56.9055 22.0629 56.4293 21.428C55.9531 20.793 55.7944 19.9994 55.9531 19.2057C56.2705 17.301 57.6991 16.0311 59.6039 16.0311C60.5563 16.0311 61.3499 16.3486 61.8261 16.9835C62.1436 17.4597 62.461 18.2533 62.3023 19.2057ZM66.7468 12.8565H63.5722C63.2547 12.8565 63.0959 13.0153 62.9372 13.3327L62.7785 14.2851L62.6198 13.9676C61.9848 13.0153 60.3976 12.5391 58.8103 12.5391C55.1595 12.5391 52.1436 15.2375 51.5087 19.047C51.1912 20.9518 51.6674 22.6978 52.7785 23.9676C53.7309 25.0787 55.1594 25.5549 56.9055 25.5549C59.7626 25.5549 61.3499 23.6502 61.3499 23.6502L61.1912 24.6026C61.1912 24.92 61.3499 25.2375 61.8261 25.2375H64.6832C65.1594 25.2375 65.4769 24.92 65.6356 24.4438L67.3817 13.3327C67.3817 13.174 67.223 12.8565 66.7468 12.8565Z" fill="#263577"/>
<path d="M84.0474 12.8574H80.714C80.3966 12.8574 80.0791 13.0162 79.9204 13.3336L75.4759 20.0003L73.5712 13.6511C73.4124 13.1749 73.095 13.0161 72.6188 13.0161H69.4442C69.1267 13.0161 68.8093 13.3336 68.968 13.8098L72.6188 24.286L69.2854 29.0479C68.968 29.3654 69.2855 30.0003 69.7617 30.0003H73.095C73.4125 30.0003 73.7299 29.8415 73.8886 29.5241L84.6823 13.8098C84.841 13.3336 84.5236 12.8574 84.0474 12.8574Z" fill="#263577"/>
<path d="M95.6351 12.857C95.3176 15.238 93.4129 15.238 91.6668 15.238H90.7144L91.5081 10.6348C91.5081 10.3173 91.8256 10.1586 92.1431 10.1586H92.6192C93.8891 10.1586 95.0002 10.1586 95.6351 10.7935C95.7938 11.4284 95.7938 12.0634 95.6351 12.857ZM94.8414 6.50781H88.0161C87.5399 6.50781 87.2224 6.82527 87.0637 7.30146L84.3652 24.7618C84.3652 25.0792 84.524 25.3967 85.0002 25.3967H88.4922C88.8097 25.3967 89.1271 25.238 89.1271 24.7618L89.9208 19.8411C89.9208 19.365 90.397 19.0475 90.8732 19.0475H93.0954C97.5398 19.0475 100.08 16.8253 100.873 12.5396C101.191 10.6348 100.873 9.20622 100.08 8.09511C98.9684 7.14273 97.2224 6.50781 94.8414 6.50781Z" fill="#2199D6"/>
<path d="M110.714 19.2057C110.397 21.1105 108.968 22.3803 107.064 22.3803C106.111 22.3803 105.318 22.0629 104.841 21.428C104.365 20.793 104.206 19.9994 104.365 19.2057C104.683 17.301 106.111 16.0311 108.016 16.0311C108.968 16.0311 109.762 16.3486 110.238 16.9835C110.556 17.4597 110.873 18.2533 110.714 19.2057ZM115.159 12.8565H111.984C111.667 12.8565 111.508 13.0153 111.349 13.3327L111.191 14.2851L111.032 13.9676C110.397 13.0153 108.81 12.5391 107.222 12.5391C103.572 12.5391 100.556 15.2375 99.9208 19.047C99.6033 20.9518 100.079 22.6978 101.191 23.9676C102.143 25.0787 103.572 25.5549 105.318 25.5549C108.175 25.5549 109.762 23.6502 109.762 23.6502L109.603 24.6026C109.603 24.92 109.762 25.2375 110.238 25.2375H113.095C113.572 25.2375 113.889 24.92 114.048 24.4438L115.794 13.3327C115.794 13.174 115.476 12.8565 115.159 12.8565Z" fill="#2199D6"/>
<path d="M118.968 6.984L116.111 24.7618C116.111 25.0792 116.27 25.3967 116.746 25.3967H119.603C120.08 25.3967 120.397 25.0792 120.556 24.6031L123.254 7.14274C123.254 6.82528 123.095 6.50781 122.619 6.50781H119.445C119.286 6.50781 119.127 6.82527 118.968 6.984Z" fill="#2199D6"/>
<path d="M7.85651 28.7309L8.33268 25.3976H7.22157H1.66602L5.47555 1.11185C5.47555 1.11185 5.47554 0.953125 5.63427 0.953125H5.79301H15.1581C18.174 0.953125 20.3962 1.58805 21.5073 2.85789C21.9835 3.49281 22.3009 4.12773 22.4597 4.76265C22.6184 5.5563 22.6184 6.34995 22.4597 7.46106V8.09598L22.9359 8.41344C23.4121 8.57217 23.7295 8.88963 24.047 9.20709C24.5232 9.68328 24.8406 10.3182 24.8406 11.1119C24.9994 11.9055 24.9993 12.8579 24.6819 13.969C24.3644 15.2388 24.047 16.1912 23.5708 17.1436C23.0946 17.9372 22.4597 18.5722 21.8247 19.2071C21.1898 19.6833 20.2374 20.0007 19.4438 20.3182C18.4914 20.4769 17.539 20.6357 16.4279 20.6357H15.6343C15.1581 20.6357 14.6819 20.7944 14.2057 21.1118C13.8883 21.4293 13.5708 21.9055 13.4121 22.3817V22.6991L12.4597 28.5722V28.7309V28.8896C12.4597 28.8896 12.4597 28.8896 12.3009 28.8896H7.85651V28.7309Z" fill="#263577"/>
<path d="M23.5729 7.46094C23.5729 7.61967 23.5729 7.7784 23.4142 7.93713C22.1443 14.2863 18.0174 16.3498 12.6205 16.3498H9.92211C9.28719 16.3498 8.65229 16.826 8.65229 17.4609L7.22371 26.3498L6.90625 28.8895C6.90625 29.3657 7.2237 29.6832 7.54116 29.6832H12.4618C13.0967 29.6832 13.5729 29.207 13.5729 28.7308V28.4133L14.5253 22.699V22.3816C14.684 21.7467 15.1602 21.4292 15.6364 21.4292H16.4301C21.192 21.4292 24.8427 19.5244 25.7951 13.9689C26.2713 11.5879 25.9539 9.68316 24.8428 8.41332C24.5253 8.09586 24.0491 7.7784 23.5729 7.46094Z" fill="#2199D6"/>
<path d="M22.3012 6.984C22.1424 6.984 21.9837 6.82527 21.6663 6.82527C21.5075 6.82527 21.1901 6.66654 21.0313 6.66654C20.2377 6.50781 19.444 6.50781 18.6504 6.50781H11.3488C11.1901 6.50781 11.0313 6.50781 10.8726 6.66654C10.5551 6.82527 10.2377 7.14273 10.2377 7.46019L8.65039 17.3015V17.6189C8.80912 16.984 9.28529 16.5078 9.92021 16.5078H12.6186C18.0155 16.5078 22.1424 14.2856 23.4123 8.09511C23.4123 7.93638 23.4123 7.77765 23.571 7.61892C23.2536 7.46019 22.9361 7.30147 22.6186 7.14274C22.4599 6.98401 22.3012 6.984 22.3012 6.984Z" fill="#252C5E"/>
<path d="M10.2387 7.46031C10.2387 7.14285 10.5561 6.82539 10.8736 6.66666C11.0323 6.66666 11.191 6.50793 11.3498 6.50793H18.6513C19.445 6.50793 20.3974 6.50793 21.0323 6.66666C21.191 6.66666 21.5085 6.66666 21.6672 6.82539C21.8259 6.82539 21.9847 6.98412 22.3021 6.98412C22.4609 6.98412 22.4609 6.98413 22.6196 7.14286C22.937 7.30159 23.2545 7.46032 23.572 7.61905C23.8894 5.23809 23.572 3.65079 22.3021 2.22222C20.8736 0.634917 18.3339 0 15.1593 0H5.7942C5.15928 0 4.52436 0.476186 4.52436 1.11111L0.714844 25.5555C0.714844 26.0317 1.0323 26.5079 1.50849 26.5079H7.22276L8.65135 17.3016L10.2387 7.46031Z" fill="#263577"/>
</svg>
