<svg width="24" height="24" viewBox="0 0 24 24" fill="none" xmlns="http://www.w3.org/2000/svg">
<g opacity="0.8">
<path d="M24 17.5446C24 15.0266 22.1316 12.926 19.6748 12.4895L18.9483 6.35409H20.9484V2.05504C18.4488 1.80437 16.4211 2.40748 14.9535 3.91391L15.021 4.98386H13.5234V6.35413H15.1076L15.5369 13.1529C15.561 13.4895 15.27 13.8911 14.825 13.8906H9.76073C10.028 13.0039 10.9879 12.27 11.9977 12.292H12.7008V8.63792C12.7008 7.44163 11.702 6.46832 10.4743 6.46832H5.90625C4.67855 6.46832 3.67969 7.44163 3.67969 8.63792C3.67969 9.32191 4.00655 9.9326 4.5157 10.3306C3.75797 10.711 3.05691 11.2075 2.43666 11.8117C0.865359 13.3433 0 15.3793 0 17.5446V18.2298H1.6613C1.58522 20.2685 3.30234 22.0061 5.40802 22C7.49822 22.0039 9.2302 20.2882 9.15478 18.2298H14.8452C14.7691 20.2685 16.4863 22.0061 18.5919 22C20.6821 22.0039 22.4141 20.2882 22.3387 18.2298H24V17.5446ZM16.3975 4.47001C17.2166 3.79725 18.3075 3.41883 19.5422 3.37562V4.98381H16.4299L16.3975 4.47001ZM5.90625 9.4372C5.45395 9.4372 5.08594 9.0786 5.08594 8.63787C5.08594 8.19715 5.45395 7.83855 5.90625 7.83855H10.4742C10.9265 7.83855 11.2945 8.19715 11.2945 8.63787V9.4372H8.32031H5.90625ZM3.43097 12.7806C4.73723 11.5082 6.47363 10.8075 8.32031 10.8075H11.2945V10.9855C10.5608 11.1204 9.8857 11.4662 9.34612 11.9921C8.42859 12.8381 8.16998 14.0855 8.24766 15.2609H14.825C15.974 15.2867 17.0395 14.2395 16.9405 13.0687L16.5165 6.35413H17.5327L18.4088 13.7533C18.6357 15.3223 17.2411 16.8979 15.5677 16.8595H1.44131C1.59998 15.3188 2.29247 13.8904 3.43097 12.7806ZM5.40802 20.6298C4.09912 20.632 2.99203 19.5361 3.06858 18.2298H4.70494V19.0322L6.11119 19.0323V18.2298H7.74755C7.82405 19.5361 6.71695 20.632 5.40802 20.6298ZM18.592 20.6298C17.283 20.632 16.176 19.5361 16.2525 18.2298H17.8889V19.0322L19.2951 19.0323V18.2298H20.9315C21.008 19.5361 19.9009 20.632 18.592 20.6298ZM18.733 16.8595C18.7395 16.8525 18.7462 16.8457 18.7526 16.8386C19.4838 16.0392 19.8676 14.9963 19.8315 13.934C21.208 14.3347 22.2654 15.463 22.5297 16.8595H18.733Z" fill="#222B4A"/>
</g>
</svg>
