<svg width="24" height="24" viewBox="0 0 24 24" fill="none" xmlns="http://www.w3.org/2000/svg">
<g opacity="0.8" clip-path="url(#clip0_4439_8029)">
<path d="M23.3913 17.7443L21.6234 4.56867C21.559 4.08952 21.1502 3.73191 20.6668 3.73191H17.4046V2.50838C17.4046 1.11816 16.2452 0 14.855 0H9.6354C8.24518 0 7.10959 1.11816 7.10959 2.50838V3.73191H3.82361C3.34257 3.73191 2.93504 4.08605 2.86787 4.5623L0.609059 20.5837C0.570059 20.8605 0.652934 21.1405 0.836169 21.3516C1.01954 21.5625 1.28523 21.6836 1.56475 21.6836H6.60151L6.73272 23.1281C6.77767 23.6255 7.19462 24 7.69393 24H12.5837C13.0831 24 13.5 23.6255 13.5449 23.1282L13.6761 21.6837H18.408C18.6075 21.6837 18.802 21.6218 18.965 21.5067L22.9917 18.6609C23.2851 18.4536 23.439 18.1005 23.3913 17.7443ZM9.03995 2.50838C9.03995 2.18255 9.30962 1.93031 9.63545 1.93031H14.855C15.1808 1.93031 15.4742 2.18255 15.4742 2.50838V3.73191H9.03995V2.50838ZM11.7019 22.0697H8.57579L7.71503 12.5469H12.5627L11.7019 22.0697ZM17.5644 19.7534H13.8507L14.5022 12.5455C14.9572 12.4677 15.3039 12.0657 15.3039 11.5885C15.3039 11.0555 14.8718 10.6166 14.3387 10.6166H11.3718L11.9495 8.9392L12.0827 8.55764H12.2593H13.0292C13.5622 8.55764 13.9944 8.1255 13.9944 7.59248C13.9944 7.05947 13.5622 6.62733 13.0292 6.62733H11.3934C10.9811 6.62733 10.6143 6.88256 10.4805 7.27261L9.33123 10.6166H5.93889C5.40587 10.6166 4.97373 11.0554 4.97373 11.5884C4.97373 12.0657 5.32042 12.4643 5.77543 12.5421L6.42704 19.7533H2.6755L4.6622 5.66217H19.4541L17.5644 19.7534ZM19.6596 18.6521L20.6123 11.5484L21.4005 17.4218L19.6596 18.6521Z" fill="#222B4A"/>
</g>
<defs>
<clipPath id="clip0_4439_8029">
<rect width="24" height="24" fill="white"/>
</clipPath>
</defs>
</svg>
