<svg width="98" height="30" viewBox="0 0 98 30" fill="none" xmlns="http://www.w3.org/2000/svg">
<path d="M91.1426 0.427734H84.9997C83.1426 0.427734 81.714 0.999163 80.8569 2.85631L69.1426 29.5706H77.4283C77.4283 29.5706 78.8569 25.9992 79.1426 25.142C79.9997 25.142 88.1426 25.142 89.2854 25.142C89.5711 26.142 90.2854 29.4277 90.2854 29.4277H97.714L91.1426 0.427734ZM81.4283 19.142C82.1426 17.4277 84.5711 10.9992 84.5711 10.9992C84.5711 11.142 85.2854 9.28488 85.5711 8.28488L86.1426 10.8563C86.1426 10.8563 87.714 17.8563 87.9997 19.2849H81.4283V19.142Z" fill="#3362AB"/>
<path d="M69.7143 20C69.7143 26 64.2857 30 55.8571 30C52.2857 30 48.8571 29.2857 47 28.4286L48.1429 21.8571L49.1429 22.2857C51.7143 23.4286 53.4286 23.8571 56.5714 23.8571C58.8571 23.8571 61.2857 23 61.2857 21C61.2857 19.7143 60.2857 18.8571 57.1429 17.4286C54.1429 16 50.1429 13.7143 50.1429 9.57143C50.1429 3.85714 55.7143 0 63.5714 0C66.5714 0 69.1429 0.571429 70.7143 1.28571L69.5714 7.57143L69 7C67.5714 6.42857 65.7143 5.85714 63 5.85714C60 6 58.5714 7.28571 58.5714 8.42857C58.5714 9.71429 60.2857 10.7143 63 12C67.5714 14.1429 69.7143 16.5714 69.7143 20Z" fill="#3362AB"/>
<path d="M0 0.714007L0.142857 0.142578H12.4286C14.1429 0.142578 15.4286 0.714007 15.8571 2.57115L18.5714 15.4283C15.8571 8.57115 9.57143 2.99972 0 0.714007Z" fill="#F9B50B"/>
<path d="M35.8574 0.428013L23.4288 29.428H15.0003L7.85742 5.1423C13.0003 8.42801 17.286 13.5709 18.8574 17.1423L19.7146 20.1423L27.4289 0.285156H35.8574V0.428013Z" fill="#3362AB"/>
<path d="M39.1426 0.285156H46.9997L41.9997 29.428H34.1426L39.1426 0.285156Z" fill="#3362AB"/>
</svg>
