<svg width="24" height="24" viewBox="0 0 24 24" fill="none" xmlns="http://www.w3.org/2000/svg">
<g opacity="0.8">
<path d="M14.9943 7.47237V4.71875H9.36373L9.36802 7.37941C4.8786 8.50696 1.49582 12.4359 1.1803 17.1916H0V19.2817H24V17.1916H22.8441C22.5367 12.5568 19.3144 8.70815 14.9943 7.47237ZM10.8798 5.92731H13.4827V7.1549C13.0012 7.08942 12.5113 7.05259 12.0121 7.05259C11.6299 7.05259 11.2523 7.07311 10.8798 7.1119C10.8798 7.1119 10.8798 5.92731 10.8798 5.92731ZM10.0425 8.77597C10.6779 8.63916 11.3364 8.56471 12.0121 8.56471C12.6877 8.56471 13.3462 8.63916 13.9816 8.77597C17.9551 9.63185 20.9995 13.0181 21.3325 17.1594H2.69126C3.02458 13.0181 6.06858 9.63185 10.0425 8.77597Z" fill="#222B4A"/>
<path d="M19.0427 13.7051C18.2814 12.0131 16.8033 10.639 14.6486 9.62108C14.4316 9.51877 14.2056 9.4668 13.9776 9.4668C13.2597 9.4668 12.5961 10.0114 12.4341 10.734C12.2891 11.3809 12.5938 11.9871 13.2109 12.2786C14.8672 13.0612 15.8436 13.9388 16.3766 15.1242C16.6096 15.642 17.0654 15.9509 17.5965 15.9513C18.1108 15.9513 18.6361 15.654 18.933 15.1947C19.2253 14.7427 19.2651 14.2 19.0427 13.7051ZM17.981 14.5784C17.8794 14.735 17.7108 14.8172 17.5965 14.8172C17.5561 14.8172 17.4817 14.8172 17.4108 14.659C16.5754 12.8016 14.9862 11.8631 13.6951 11.253C13.5532 11.186 13.5114 11.1127 13.5408 10.982C13.5819 10.7979 13.7676 10.6006 13.9777 10.6006C14.037 10.6006 14.0998 10.6162 14.1645 10.6468C16.0681 11.546 17.3612 12.7314 18.0085 14.1703C18.0736 14.3151 18.0651 14.4489 17.981 14.5784Z" fill="#222B4A"/>
</g>
</svg>
