<svg width="25" height="24" viewBox="0 0 25 24" fill="none" xmlns="http://www.w3.org/2000/svg">
<path d="M18.1656 7.55156H18.0523C17.6035 5.47191 15.9572 3.77667 13.8943 3.26255V2.66812C13.8943 2.47392 13.737 2.31656 13.5428 2.31656C13.3486 2.31656 13.1912 2.47392 13.1912 2.66812V3.13411C12.7484 3.08152 12.3056 3.08152 11.8628 3.13411V0.703125H13.1912V1.13578C13.1912 1.32998 13.3486 1.48734 13.5428 1.48734C13.737 1.48734 13.8943 1.32998 13.8943 1.13578V0.351562C13.8943 0.157359 13.737 0 13.5428 0H11.5112C11.3171 0 11.1596 0.157359 11.1596 0.351562V3.26255C9.09682 3.77662 7.45048 5.47191 7.0017 7.55156H6.83496C6.12415 7.55156 5.5459 8.12986 5.5459 8.84063V8.99723C5.5459 9.70805 6.12415 10.2863 6.83496 10.2863H7.00207L7.60784 16.2277C7.66179 16.7565 8.3479 16.5542 8.30735 16.1564L8.08634 13.9885C9.71056 14.6186 11.3306 14.217 12.9328 13.749C14.2546 13.3251 15.676 13.1038 17.002 13.6495L16.2039 21.4825H8.85012L8.46349 17.6887C8.41732 17.2364 7.7179 17.3079 7.76398 17.76L8.36773 23.6841C8.38601 23.8635 8.53713 24 8.71746 24H16.3365C16.5169 24 16.668 23.8635 16.6863 23.6841L18.0514 10.2863H18.1656C18.8764 10.2863 19.4547 9.70805 19.4547 8.99723V8.84063C19.4546 8.12986 18.8764 7.55156 18.1656 7.55156ZM17.3308 7.55156H13.8943V3.98742C15.5774 4.46447 16.9019 5.80481 17.3308 7.55156ZM13.1912 3.84164V7.55156H11.8628V3.84164C12.0802 3.81286 12.9738 3.81286 13.1912 3.84164ZM11.1596 3.98742V7.55156H7.72315C8.15205 5.80481 9.47651 4.46447 11.1596 3.98742ZM8.00477 13.1887L7.70885 10.2863H11.1596V13.4978C10.161 13.7054 9.14749 13.7287 8.00477 13.1887ZM13.1912 10.2863V12.9444C12.7478 13.0662 12.3061 13.1947 11.8628 13.3167V10.2863H13.1912ZM9.03499 23.2969L8.92174 22.1856H16.1322L16.0189 23.2969H9.03499ZM18.7515 8.99719C18.7515 9.3203 18.4887 9.58313 18.1656 9.58313H16.4344C16.2402 9.58313 16.0829 9.74048 16.0829 9.93469C16.0829 10.1289 16.2402 10.2863 16.4344 10.2863H17.3447L17.0759 12.9234C15.9216 12.4973 14.8826 12.5577 13.8943 12.7702V10.2863H14.9026C15.0968 10.2863 15.2541 10.1289 15.2541 9.93469C15.2541 9.74048 15.0968 9.58313 14.9026 9.58313H6.83496C6.51185 9.58313 6.24902 9.3203 6.24902 8.99719V8.84063C6.24902 8.51752 6.51185 8.25469 6.83496 8.25469H18.1656C18.4887 8.25469 18.7515 8.51752 18.7515 8.84063V8.99719Z" fill="white"/>
</svg>
