<svg width="24" height="24" viewBox="0 0 24 24" fill="none" xmlns="http://www.w3.org/2000/svg">
<path d="M21.0086 10.7153H10.2146V6.27928H17.2114C17.4041 6.27928 17.5603 6.12309 17.5603 5.93044C17.5603 5.73778 17.4041 5.58159 17.2114 5.58159H10.2146V4.41872H21.474C21.7945 4.41872 22.0554 4.67953 22.0554 5.00016C22.022 5.35439 21.8283 5.54822 21.474 5.58159H18.732C18.5394 5.58159 18.3832 5.73778 18.3832 5.93044C18.3832 6.12309 18.5394 6.27928 18.732 6.27928H21.474C22.2534 6.20606 22.6797 5.77969 22.7531 5.00016C22.7531 4.29483 22.1793 3.72103 21.474 3.72103H10.2146V3.13969C10.2146 2.93039 10.1637 2.73286 10.0743 2.55825H21.4737C22.1791 2.55825 22.7529 1.98445 22.7529 1.27912C22.7529 0.573797 22.1791 0 21.4737 0H2.52545C1.82013 0 1.24633 0.573844 1.24633 1.27912C1.24633 1.98441 1.82013 2.55825 2.52545 2.55825H4.07538C3.98589 2.73281 3.93503 2.93034 3.93503 3.13959V3.72103H2.52522C1.74578 3.79434 1.31941 4.22072 1.24609 5.00016C1.24609 5.70548 1.81989 6.27928 2.52522 6.27928H3.93503V7.51191C3.93503 7.70456 4.09122 7.86075 4.28388 7.86075C4.47653 7.86075 4.63272 7.70456 4.63272 7.51191V3.13959C4.63272 2.81944 4.89283 2.559 5.2128 2.55825H5.21556C5.3702 2.55862 5.51561 2.619 5.6252 2.72859C5.73508 2.83852 5.79559 2.98448 5.79559 3.13959V10.7153H4.63277V9.03244C4.63277 8.83978 4.47658 8.68359 4.28392 8.68359C4.09127 8.68359 3.93508 8.83978 3.93508 9.03244V10.7153H2.99059C2.02881 10.7153 1.24633 11.4978 1.24633 12.4596V15.0141C1.24633 18.3994 3.75255 21.4153 7.09056 22.0238C6.54274 22.8631 7.1688 24 8.16222 24H15.837C16.8304 24 17.4565 22.8631 16.9087 22.0238C20.2435 21.4159 22.7529 18.3975 22.7529 15.0141V12.4596C22.7529 11.4977 21.9704 10.7153 21.0086 10.7153ZM3.93508 5.58155H2.52522C2.20464 5.58155 1.94378 5.32073 1.94378 5.00011C1.97716 4.64587 2.17098 4.45209 2.52522 4.41867H3.93503V5.58155H3.93508ZM9.51691 10.7153H8.35408V3.13969C8.35408 2.81911 8.61489 2.55825 8.93552 2.55825C9.25614 2.55825 9.51695 2.81906 9.51695 3.13969V10.7153H9.51691ZM2.52545 1.86056C2.20488 1.86056 1.94402 1.59975 1.94402 1.27912C1.94402 0.9585 2.20483 0.697688 2.52545 0.697688H21.4738C21.7944 0.697688 22.0552 0.958547 22.0552 1.27912C22.0552 1.5997 21.7944 1.86052 21.4738 1.86052H2.52545V1.86056ZM6.49352 3.13969C6.49352 2.81911 6.75433 2.55825 7.07495 2.55825C7.39558 2.55825 7.65639 2.81906 7.65639 3.13969V10.7153H6.49356V3.13969H6.49352ZM15.837 23.3023H8.16222C7.41067 23.3023 7.41063 22.1395 8.16222 22.1395H15.837C16.5886 22.1394 16.5886 23.3023 15.837 23.3023ZM22.0552 15.0141C22.0552 15.9084 21.8713 16.7606 21.5398 17.5351H14.8955C14.7029 17.5351 14.5467 17.6913 14.5467 17.884C14.5467 18.0766 14.7029 18.2328 14.8955 18.2328H21.1894C20.0757 20.1499 17.9997 21.4417 15.6275 21.4417H8.3717C5.9995 21.4417 3.9235 20.1499 2.8098 18.2328H13.3755C13.5681 18.2328 13.7243 18.0766 13.7243 17.884C13.7243 17.6913 13.5681 17.5351 13.3755 17.5351H2.45936C2.12786 16.7606 1.94402 15.9084 1.94402 15.0141V13.6976H22.0552V15.0141ZM22.0552 12.9999H1.94402V12.4596C1.94402 11.8825 2.41347 11.413 2.99059 11.413H21.0086C21.5857 11.413 22.0552 11.8824 22.0552 12.4596V12.9999H22.0552Z" fill="white"/>
</svg>
