<svg width="24" height="24" viewBox="0 0 24 24" fill="none" xmlns="http://www.w3.org/2000/svg">
<g clip-path="url(#clip0_4432_6316)">
<path d="M14.5032 12.1925C14.5032 10.7046 13.2928 9.49414 11.8048 9.49414C10.3169 9.49414 9.10645 10.7046 9.10645 12.1925C9.10645 13.6805 10.3169 14.891 11.8048 14.891C13.2928 14.891 14.5032 13.6805 14.5032 12.1925ZM9.81041 12.1925C9.81041 11.0928 10.7051 10.1981 11.8049 10.1981C12.9047 10.1981 13.7994 11.0928 13.7994 12.1925C13.7994 13.2923 12.9047 14.187 11.8049 14.187C10.7051 14.187 9.81041 13.2923 9.81041 12.1925Z" fill="white"/>
<path d="M16.8625 11.5781C17.5651 11.2869 18.0166 10.6549 18.0166 9.97699V9.71458C18.0166 9.03663 17.5636 8.40813 16.8625 8.11343C16.7752 8.07677 16.6769 8.07677 16.5897 8.11343C15.8886 8.40813 15.4355 9.03663 15.4355 9.71458V9.97699C15.4355 10.6549 15.8893 11.2818 16.5897 11.5781C16.694 11.6222 16.7702 11.6163 16.8625 11.5781ZM16.1395 9.97694V9.71454C16.1395 9.35716 16.3607 9.02777 16.7261 8.82794C17.0914 9.02777 17.3127 9.35716 17.3127 9.71454V9.97694C17.3127 10.3343 17.0914 10.6637 16.7261 10.8635C16.3608 10.6637 16.1395 10.3343 16.1395 9.97694Z" fill="white"/>
<path d="M5.75635 10.4999C6.08082 10.698 6.4366 10.7971 6.78005 10.7971C7.12374 10.7971 7.45505 10.6979 7.73007 10.4996L7.94288 10.3461C8.49272 9.94957 8.7375 9.21452 8.56646 8.47347C8.54518 8.38127 8.48766 8.30154 8.40694 8.25222C7.75772 7.8559 6.98297 7.85604 6.43318 8.2526L6.22036 8.40607C5.67047 8.80258 5.42564 9.53768 5.59679 10.2787C5.61807 10.3709 5.67558 10.4506 5.75635 10.4999ZM6.63211 8.97701L6.84493 8.82354C7.13485 8.61447 7.53141 8.60135 7.90716 8.78079C7.95877 9.19399 7.82105 9.56608 7.53118 9.77515L7.31836 9.92861C7.02844 10.1377 6.63188 10.1508 6.25613 9.97137C6.20452 9.55816 6.34228 9.18602 6.63211 8.97701Z" fill="white"/>
<path d="M22.0096 2.22581C21.3073 1.94147 20.6114 1.6118 19.8928 1.3568C19.7098 1.29183 19.5084 1.38759 19.4434 1.57078C19.3785 1.75397 19.4742 1.9552 19.6575 2.02022C20.3545 2.26758 21.0453 2.55117 21.7108 2.86322C22.2815 3.19988 22.449 3.67692 22.2132 4.29427L21.3234 6.0742C17.9088 4.25639 13.9548 3.48061 10.1055 3.84075C9.91197 3.85884 9.76979 4.03045 9.78789 4.22395C9.80603 4.41745 9.97665 4.56005 10.1711 4.54158C13.8885 4.19377 17.7126 4.94513 21.0085 6.70388L20.4834 7.75406C15.233 4.94203 8.71834 4.94203 3.46797 7.75397L2.94297 6.70397C4.73233 5.74805 6.65518 5.08767 8.66415 4.74066C8.85573 4.70756 8.98417 4.52545 8.95108 4.33392C8.91798 4.14234 8.73573 4.01386 8.54434 4.047C6.46736 4.40573 4.47897 5.08748 2.62797 6.07402L1.73804 4.29422C1.50226 3.67688 1.66975 3.19983 2.2404 2.86317C5.29811 1.43039 8.5735 0.703922 11.9756 0.703922C14.0711 0.703922 16.1474 0.986156 18.1466 1.54275C18.3339 1.59492 18.5279 1.48538 18.5801 1.29811C18.6322 1.11084 18.5227 0.916781 18.3354 0.864656C16.2748 0.290906 14.135 0 11.9756 0C8.46948 0 5.09359 0.748875 1.94172 2.22577C1.05545 2.64113 0.669809 3.73172 1.10847 4.60903L4.68208 11.7563C4.81783 11.9428 4.97523 11.9953 5.15429 11.9137C5.32815 11.8267 5.39861 11.6153 5.31165 11.4415L3.78287 8.38392C8.83618 5.66981 15.1152 5.66986 20.1685 8.38402L17.1971 14.3266C15.4773 13.6855 13.5548 15.0127 13.5548 16.854C13.5548 17.7773 14.0328 18.6343 14.7975 19.1258L13.0217 22.6771C12.5973 23.5256 11.3539 23.5257 10.9295 22.6771L10.0311 20.8804C10.9119 20.4206 11.481 19.503 11.481 18.488C11.481 16.5369 9.36404 15.2157 7.61772 16.0536L6.07848 12.9751C5.99162 12.8013 5.78022 12.7308 5.60626 12.8177C5.43245 12.9046 5.36195 13.1161 5.4489 13.29L10.2999 22.992C10.9691 24.3299 12.976 24.3423 13.6514 22.992L22.8428 4.60903C23.3792 3.64472 22.9256 2.59664 22.0096 2.22581ZM8.78261 16.4935C10.817 16.4935 11.5002 19.3055 9.71636 20.2508L7.93267 16.6835C8.19686 16.5586 8.48584 16.4935 8.78261 16.4935ZM14.2587 16.854C14.2587 15.5347 15.6351 14.5499 16.88 14.9609L15.1151 18.4904C14.5866 18.1215 14.2587 17.5108 14.2587 16.854Z" fill="white"/>
</g>
<defs>
<clipPath id="clip0_4432_6316">
<rect width="24" height="24" fill="white"/>
</clipPath>
</defs>
</svg>
