<svg width="24" height="24" viewBox="0 0 24 24" fill="none" xmlns="http://www.w3.org/2000/svg">
<path d="M23.9475 17.6801C23.8835 17.5765 23.7703 17.5134 23.6484 17.5134H21.6643C21.9633 17.1705 22.1058 16.7472 22.0656 16.3196C22.0485 16.1184 21.8987 15.9056 21.6641 15.9351C21.4362 15.964 21.3487 16.1881 21.3653 16.3824C21.4329 17.101 20.6057 17.5134 20.0274 17.5134H4.66453C4.05839 17.5134 3.25242 17.1093 3.32616 16.3823C3.44677 15.0939 3.98583 13.8516 4.88508 12.7896C5.01145 12.6403 5.14556 12.4946 5.28577 12.3531C5.31633 12.5084 5.33592 12.6667 5.34267 12.8274C5.37858 13.6865 5.75128 14.4781 6.39225 15.0567C6.97369 15.5809 7.72847 15.8693 8.51859 15.8693H8.52778C9.32128 15.8671 10.078 15.5741 10.6586 15.0446C11.3085 14.4521 11.6775 13.6429 11.6978 12.7661C11.7253 11.5724 11.0669 10.4463 10.0108 9.88492C12.0653 9.45151 14.268 9.6016 16.2148 10.3291C17.6577 10.8684 18.8996 11.7192 19.8064 12.7896C20.3461 13.4269 20.7562 14.1273 21.0252 14.8715C21.1461 15.0728 21.2962 15.1432 21.4754 15.0826C21.658 15.0166 21.7525 14.815 21.6864 14.6324C21.3889 13.8093 20.9369 13.0365 20.343 12.3352C19.3586 11.1731 18.0162 10.2517 16.461 9.67042C14.008 8.75373 11.1733 8.69874 8.67169 9.51657C8.50978 9.50828 8.35045 9.48892 8.1982 9.45887C8.0078 9.42104 7.82278 9.54526 7.78519 9.73571C7.74759 9.92621 7.87158 10.1111 8.06203 10.1487C8.24902 10.1856 8.44388 10.2093 8.64155 10.2191C9.96422 10.2842 11.0255 11.4218 10.9949 12.7498C10.9791 13.4327 10.6914 14.0631 10.1849 14.525C9.25612 15.3722 7.797 15.3764 6.8633 14.5346C6.36375 14.0837 6.07322 13.467 6.04523 12.798C6.0052 11.8425 5.61347 10.9469 4.94231 10.2762L3.97266 9.30653C3.65222 8.91971 3.65217 8.53285 3.97247 8.14595C4.32727 7.82935 4.71398 7.82935 5.13272 8.14595C5.13272 8.14595 6.28411 9.28834 6.37669 9.3632C6.52762 9.48531 6.74897 9.46182 6.87113 9.31093C6.99319 9.15995 6.96975 8.9386 6.81881 8.81649C6.74541 8.7571 5.62992 7.64874 5.62992 7.64874C5.34516 7.36398 4.965 7.20784 4.57181 7.20339L3.76552 6.39751C3.64172 6.27348 3.61636 6.08134 3.70416 5.9296C3.83213 5.73109 3.90398 5.50932 3.91978 5.26445C3.91978 4.876 3.71114 4.51403 3.375 4.31959C2.85403 4.01907 2.18602 4.19828 1.88564 4.71882L1.395 5.56871L0.545203 6.05921C0.208922 6.25332 0 6.61534 0 7.00403C0 7.19448 0.0504844 7.38264 0.145969 7.54815C0.291469 7.80048 0.526594 7.9809 0.808031 8.05632C1.08919 8.13165 1.38309 8.09298 1.63547 7.94739C1.80595 7.81618 2.00198 7.81337 2.22356 7.93885L3.02948 8.74482C3.03427 9.14438 3.19177 9.51971 3.47513 9.80354L4.44502 10.7735C4.69158 11.0199 4.89127 11.3039 5.03977 11.6128C4.79311 11.8419 4.56108 12.0841 4.34841 12.3353C3.35573 13.5076 2.76014 14.8843 2.62627 16.3145C2.58473 16.7281 2.76145 17.2082 3.02864 17.5134H0.351562C0.0576563 17.5661 -0.0471562 17.7357 0.037125 18.0222L0.666188 19.2803C1.20553 20.3589 2.28984 21.029 3.49594 21.029H10.4883C10.6825 21.029 10.8398 20.8716 10.8398 20.6775C10.8398 20.4833 10.6825 20.3259 10.4883 20.3259H3.49594C2.55783 20.3259 1.7145 19.8047 1.29506 18.9659L0.920391 18.2165H23.0796L22.7049 18.9659C22.2855 19.8047 21.4422 20.3259 20.5041 20.3259H12.0206C11.8264 20.3259 11.6691 20.4833 11.6691 20.6775C11.6691 20.8716 11.8264 21.029 12.0206 21.029H20.5041C21.7102 21.029 22.7945 20.3589 23.3338 19.2803L23.9629 18.0222C24.0174 17.9132 24.0115 17.7838 23.9475 17.6801ZM1.4048 7.26864C1.14609 7.45295 0.929531 7.42899 0.755016 7.19678C0.653625 7.00112 0.700875 6.82492 0.896719 6.66817L1.82812 6.13051C1.88156 6.09962 1.92595 6.05528 1.9568 6.00179L2.4945 5.07029C2.60114 4.88542 2.83861 4.8219 3.0232 4.9285C3.1425 4.99745 3.21656 5.12621 3.21656 5.26445C3.20302 5.38023 3.16247 5.48481 3.09502 5.57823C2.84859 6.00418 2.91961 6.54531 3.26798 6.89453L3.78469 7.41095C3.55481 7.54581 3.37209 7.72801 3.23662 7.95751L2.72077 7.44165C2.37253 7.09342 1.83136 7.02226 1.4048 7.26864Z" fill="white"/>
<path d="M18.3882 13.6566H17.0757C15.9771 13.6566 15.0835 12.763 15.0835 11.6645C15.0443 11.398 14.8918 11.2863 14.6259 11.3293C13.3091 11.7456 12.5906 12.8717 12.7952 14.1979C12.9875 15.4431 14.0364 16.7035 15.6694 16.7035H18.3881C19.2282 16.7035 19.9116 16.0201 19.9116 15.1801C19.9116 14.3401 19.2282 13.6566 18.3882 13.6566ZM18.3882 16.0004H15.6694C14.4322 16.0004 13.6367 15.0396 13.4902 14.0906C13.387 13.4219 13.5954 12.6127 14.4279 12.17C14.6652 13.4154 15.7622 14.3597 17.0757 14.3597H18.3882C18.8405 14.3597 19.2085 14.7277 19.2085 15.18C19.2085 15.6323 18.8405 16.0004 18.3882 16.0004Z" fill="white"/>
<path d="M12.4261 7.80169C12.5534 7.99692 12.7067 8.05988 12.886 7.9905C13.0652 7.91564 13.1498 7.70972 13.0749 7.53056C12.8072 6.89016 12.9304 6.60577 13.0863 6.24563C13.2658 5.83102 13.4892 5.31502 13.0713 4.38183C12.992 4.2046 12.784 4.12524 12.6068 4.20464C12.4296 4.284 12.3503 4.49199 12.4297 4.66917C12.721 5.3198 12.6036 5.59097 12.4411 5.9663C12.2638 6.37575 12.0431 6.88528 12.4261 7.80169Z" fill="white"/>
<path d="M8.80306 6.59659C8.93033 6.79182 9.08366 6.85478 9.263 6.7854C9.44216 6.71054 9.52672 6.50462 9.45181 6.32547C9.1842 5.68506 9.30734 5.40067 9.46325 5.04053C9.64273 4.62592 9.86619 4.10992 9.4483 3.17673C9.36894 2.9995 9.16105 2.92018 8.98376 2.99954C8.80658 3.0789 8.72722 3.28689 8.80662 3.46408C9.09795 4.1147 8.98053 4.38587 8.81801 4.7612C8.64073 5.17065 8.42009 5.68018 8.80306 6.59659Z" fill="white"/>
<path d="M16.0013 6.59659C16.1286 6.79182 16.2819 6.85478 16.4612 6.7854C16.6404 6.71054 16.725 6.50462 16.6501 6.32547C16.3824 5.68506 16.5056 5.40067 16.6615 5.04053C16.841 4.62592 17.0644 4.10992 16.6465 3.17673C16.5672 2.9995 16.3592 2.92018 16.182 2.99954C16.0048 3.0789 15.9255 3.28689 16.0049 3.46408C16.2962 4.1147 16.1788 4.38587 16.0163 4.7612C15.839 5.17065 15.6183 5.68018 16.0013 6.59659Z" fill="white"/>
</svg>
